<svg width="456" height="456" viewBox="0 0 456 456" fill="none" xmlns="http://www.w3.org/2000/svg">
<path d="M172 160.711L176.89 149L228.233 155.344L255.008 153.063L310 352L207.313 333.457L176.996 216.341L189.114 176.327L172 160.711Z" fill="#D9E4EB"/>
<path d="M177 216.298L255.01 153L310 352L207.316 333.451L177 216.298Z" fill="#C6D4DE"/>
<path d="M193 231.616L255.126 153L310 352L207.533 333.451L193 231.616Z" fill="#B1C5D2"/>
<path d="M310 352L227.297 308.023L202 270.887L210.652 180.978L231.084 167.296L254.93 151L270.976 163.387L290.436 209.318L298.219 234.727L310 352Z" fill="#0062A6"/>
<path d="M290 208.336L195 271L209.931 180.239L270.471 162L290 208.336Z" fill="#0472BD"/>
<path d="M271 164L195 272L210.036 181.583L271 164Z" fill="#1B8CD9"/>
<path d="M253 252L226.5 308L200 268.702L253 252Z" fill="#004879"/>
<path d="M210.959 181L253 252.495L192 276L210.959 181Z" fill="#1288D9"/>
<path d="M177 149L172.151 160.462L145 161L177 149Z" fill="#E6A900"/>
<path d="M177 148.538L145 161L173.562 132L177 148.538Z" fill="#FBB905"/>
<path d="M172 125.646L206.307 103L253.357 130.569L271 163.061L230.812 167L176.901 148.292L172 125.646Z" fill="#0472BD"/>
<path d="M172 126L206.157 103L253 131L176.88 149L172 126Z" fill="#1B8CD9"/>
<path d="M172 126L207 103L177 149L172 126Z" fill="#1E9DF4"/>
<path d="M193 132.5C193 134.985 190.985 137 188.5 137C186.015 137 184 134.985 184 132.5C184 130.015 186.015 128 188.5 128C190.985 128 193 130.015 193 132.5Z" fill="#005793"/>
<path d="M192 132C192 133.657 190.657 135 189 135C187.343 135 186 133.657 186 132C186 130.343 187.343 129 189 129C190.657 129 192 130.343 192 132Z" fill="black"/>
<path d="M188 131C188 131.552 187.776 132 187.5 132C187.224 132 187 131.552 187 131C187 130.448 187.224 130 187.5 130C187.776 130 188 130.448 188 131Z" fill="white"/>
<path d="M288.452 348.21L310 352H167L207.158 334L215.972 335.421L250.253 341.579L288.452 348.21Z" fill="#243947"/>
<path d="M126.023 386V362.727H135.341C137.053 362.727 138.481 362.981 139.625 363.489C140.769 363.996 141.629 364.701 142.205 365.602C142.78 366.496 143.068 367.527 143.068 368.693C143.068 369.602 142.886 370.402 142.523 371.091C142.159 371.773 141.659 372.333 141.023 372.773C140.394 373.205 139.674 373.511 138.864 373.693V373.92C139.75 373.958 140.58 374.208 141.352 374.67C142.133 375.133 142.765 375.78 143.25 376.614C143.735 377.439 143.977 378.424 143.977 379.568C143.977 380.803 143.67 381.905 143.057 382.875C142.451 383.837 141.553 384.598 140.364 385.159C139.174 385.72 137.708 386 135.966 386H126.023ZM130.943 381.977H134.955C136.326 381.977 137.326 381.716 137.955 381.193C138.583 380.663 138.898 379.958 138.898 379.08C138.898 378.436 138.742 377.867 138.432 377.375C138.121 376.883 137.678 376.496 137.102 376.216C136.534 375.936 135.856 375.795 135.068 375.795H130.943V381.977ZM130.943 372.466H134.591C135.265 372.466 135.864 372.348 136.386 372.114C136.917 371.871 137.333 371.53 137.636 371.091C137.947 370.652 138.102 370.125 138.102 369.511C138.102 368.67 137.803 367.992 137.205 367.477C136.614 366.962 135.773 366.705 134.682 366.705H130.943V372.466ZM147.179 386V362.727H152.099V381.943H162.077V386H147.179ZM179.71 362.727H184.631V377.841C184.631 379.538 184.225 381.023 183.415 382.295C182.612 383.568 181.487 384.561 180.04 385.273C178.593 385.977 176.907 386.33 174.983 386.33C173.051 386.33 171.362 385.977 169.915 385.273C168.468 384.561 167.343 383.568 166.54 382.295C165.737 381.023 165.335 379.538 165.335 377.841V362.727H170.256V377.42C170.256 378.307 170.449 379.095 170.835 379.784C171.229 380.473 171.782 381.015 172.494 381.409C173.206 381.803 174.036 382 174.983 382C175.938 382 176.767 381.803 177.472 381.409C178.184 381.015 178.733 380.473 179.119 379.784C179.513 379.095 179.71 378.307 179.71 377.42V362.727ZM188.679 386V362.727H204.361V366.784H193.599V372.33H203.554V376.386H193.599V381.943H204.406V386H188.679ZM215.679 386V362.727H224.861C226.626 362.727 228.13 363.064 229.372 363.739C230.615 364.405 231.562 365.333 232.213 366.523C232.872 367.705 233.202 369.068 233.202 370.614C233.202 372.159 232.868 373.523 232.202 374.705C231.535 375.886 230.569 376.807 229.304 377.466C228.046 378.125 226.524 378.455 224.736 378.455H218.884V374.511H223.94C224.887 374.511 225.668 374.348 226.281 374.023C226.902 373.689 227.365 373.231 227.668 372.648C227.978 372.057 228.134 371.379 228.134 370.614C228.134 369.841 227.978 369.167 227.668 368.591C227.365 368.008 226.902 367.557 226.281 367.239C225.66 366.913 224.872 366.75 223.918 366.75H220.599V386H215.679ZM236.398 386V362.727H252.08V366.784H241.318V372.33H251.273V376.386H241.318V381.943H252.125V386H236.398ZM275.457 362.727V386H271.207L261.082 371.352H260.912V386H255.991V362.727H260.31L270.355 377.364H270.56V362.727H275.457ZM294.955 370.25C294.795 369.697 294.572 369.208 294.284 368.784C293.996 368.352 293.644 367.989 293.227 367.693C292.818 367.39 292.348 367.159 291.818 367C291.295 366.841 290.716 366.761 290.08 366.761C288.89 366.761 287.845 367.057 286.943 367.648C286.049 368.239 285.352 369.098 284.852 370.227C284.352 371.348 284.102 372.72 284.102 374.341C284.102 375.962 284.348 377.341 284.841 378.477C285.333 379.614 286.03 380.481 286.932 381.08C287.833 381.67 288.898 381.966 290.125 381.966C291.239 381.966 292.189 381.769 292.977 381.375C293.773 380.973 294.379 380.409 294.795 379.682C295.22 378.955 295.432 378.095 295.432 377.102L296.432 377.25H290.432V373.545H300.17V376.477C300.17 378.523 299.739 380.28 298.875 381.75C298.011 383.212 296.822 384.341 295.307 385.136C293.792 385.924 292.057 386.318 290.102 386.318C287.92 386.318 286.004 385.837 284.352 384.875C282.701 383.905 281.413 382.53 280.489 380.75C279.572 378.962 279.114 376.841 279.114 374.386C279.114 372.5 279.386 370.818 279.932 369.341C280.485 367.856 281.258 366.598 282.25 365.568C283.242 364.538 284.398 363.754 285.716 363.216C287.034 362.678 288.462 362.409 290 362.409C291.318 362.409 292.545 362.602 293.682 362.989C294.818 363.367 295.826 363.905 296.705 364.602C297.591 365.299 298.314 366.129 298.875 367.091C299.436 368.045 299.795 369.098 299.955 370.25H294.955ZM318.241 362.727H323.162V377.841C323.162 379.538 322.757 381.023 321.946 382.295C321.143 383.568 320.018 384.561 318.571 385.273C317.124 385.977 315.438 386.33 313.514 386.33C311.582 386.33 309.893 385.977 308.446 385.273C306.999 384.561 305.874 383.568 305.071 382.295C304.268 381.023 303.866 379.538 303.866 377.841V362.727H308.787V377.42C308.787 378.307 308.98 379.095 309.366 379.784C309.76 380.473 310.313 381.015 311.026 381.409C311.738 381.803 312.567 382 313.514 382C314.469 382 315.298 381.803 316.003 381.409C316.715 381.015 317.264 380.473 317.651 379.784C318.045 379.095 318.241 378.307 318.241 377.42V362.727ZM332.131 362.727V386H327.21V362.727H332.131ZM355.645 362.727V386H351.395L341.27 371.352H341.099V386H336.179V362.727H340.497L350.543 377.364H350.747V362.727H355.645Z" fill="black"/>
</svg>
