<svg width="456" height="456" viewBox="0 0 456 456" fill="none" xmlns="http://www.w3.org/2000/svg">
<path d="M172 172.711L176.89 161L228.233 167.344L255.008 165.063L310 364L207.313 345.457L176.996 228.341L189.114 188.327L172 172.711Z" fill="#D9E4EB"/>
<path d="M177 228.298L255.01 165L310 364L207.316 345.451L177 228.298Z" fill="#C6D4DE"/>
<path d="M193 243.616L255.126 165L310 364L207.533 345.451L193 243.616Z" fill="#B1C5D2"/>
<path d="M310 364L227.297 320.023L202 282.887L210.652 192.978L231.084 179.296L254.93 163L270.976 175.387L290.436 221.318L298.219 246.727L310 364Z" fill="#0062A6"/>
<path d="M290 220.336L195 283L209.931 192.239L270.471 174L290 220.336Z" fill="#0472BD"/>
<path d="M271 176L195 284L210.036 193.583L271 176Z" fill="#1B8CD9"/>
<path d="M253 264L226.5 320L200 280.702L253 264Z" fill="#004879"/>
<path d="M210.959 193L253 264.495L192 288L210.959 193Z" fill="#1288D9"/>
<path d="M177 161L172.151 172.462L145 173L177 161Z" fill="#E6A900"/>
<path d="M177 160.538L145 173L173.562 144L177 160.538Z" fill="#FBB905"/>
<path d="M172 137.646L206.307 115L253.357 142.569L271 175.061L230.812 179L176.901 160.292L172 137.646Z" fill="#0472BD"/>
<path d="M172 138L206.157 115L253 143L176.88 161L172 138Z" fill="#1B8CD9"/>
<path d="M172 138L207 115L177 161L172 138Z" fill="#1E9DF4"/>
<path d="M193 144.5C193 146.985 190.985 149 188.5 149C186.015 149 184 146.985 184 144.5C184 142.015 186.015 140 188.5 140C190.985 140 193 142.015 193 144.5Z" fill="#005793"/>
<path d="M192 144C192 145.657 190.657 147 189 147C187.343 147 186 145.657 186 144C186 142.343 187.343 141 189 141C190.657 141 192 142.343 192 144Z" fill="black"/>
<path d="M188 143C188 143.552 187.776 144 187.5 144C187.224 144 187 143.552 187 143C187 142.448 187.224 142 187.5 142C187.776 142 188 142.448 188 143Z" fill="white"/>
<path d="M288.452 360.21L310 364H167L207.158 346L215.972 347.421L250.253 353.579L288.452 360.21Z" fill="#243947"/>
</svg>
