<svg width="613" height="881" viewBox="0 0 613 881" fill="none" xmlns="http://www.w3.org/2000/svg">
<path d="M128.23 222.769L143.986 184.955L309.424 205.438L395.698 198.075L572.891 840.404L242.015 780.531L144.328 402.388L183.376 273.189L128.23 222.769Z" fill="#D9E4EB"/>
<path d="M144.328 402.388L395.697 198.075L572.891 840.404L242.015 780.531L144.328 402.388Z" fill="#C6D4DE"/>
<path d="M195.089 451.829L395.7 198.075L572.894 840.404L242.018 780.531L195.089 451.829Z" fill="#B1C5D2"/>
<path d="M572.892 840.404L305.042 698.6L223.111 578.855L251.131 288.945L317.306 244.828L394.537 192.282L446.505 232.223L509.529 380.329L534.738 462.26L572.892 840.404Z" fill="#0062A6"/>
<path d="M509.525 378.754L202.942 579.048L251.127 288.945L446.501 230.647L509.525 378.754Z" fill="#0472BD"/>
<path d="M446.504 232.223L202.945 580.623L251.13 288.944L446.504 232.223Z" fill="#1B8CD9"/>
<path d="M390.125 518.982L305.042 698.6L219.96 572.552L390.125 518.982Z" fill="#004879"/>
<path d="M251.128 288.945L390.122 518.982L188.445 594.611L251.128 288.945Z" fill="#1288D9"/>
<path d="M143.989 184.955L128.233 222.769L40 224.545L143.989 184.955Z" fill="#E6A900"/>
<path d="M143.989 184.955L40 224.545L132.817 132.416L143.989 184.955Z" fill="#FBB905"/>
<path d="M128.234 112.477L238.526 40L389.784 128.233L446.505 232.223L317.306 244.828L143.99 184.955L128.234 112.477Z" fill="#0472BD"/>
<path d="M128.234 112.477L238.526 40L389.784 128.233L143.99 184.955L128.234 112.477Z" fill="#1B8CD9"/>
<path d="M128.234 112.477L238.526 40L143.99 184.955L128.234 112.477Z" fill="#1E9DF4"/>
<path d="M194.409 132.96C194.409 140.792 188.06 147.141 180.228 147.141C172.397 147.141 166.048 140.792 166.048 132.96C166.048 125.129 172.397 118.78 180.228 118.78C188.06 118.78 194.409 125.129 194.409 132.96Z" fill="#005793"/>
<path d="M190.046 132.96C190.046 138.382 185.651 142.777 180.229 142.777C174.807 142.777 170.412 138.382 170.412 132.96C170.412 127.538 174.807 123.143 180.229 123.143C185.651 123.143 190.046 127.538 190.046 132.96Z" fill="black"/>
<path d="M179 130.5C179 131.881 177.881 133 176.5 133C175.119 133 174 131.881 174 130.5C174 129.119 175.119 128 176.5 128C177.881 128 179 129.119 179 130.5Z" fill="white"/>
<path d="M503.226 827.799L572.552 840.404H112.478L241.677 780.531L270.037 785.258L380.329 805.741L503.226 827.799Z" fill="#243947"/>
</svg>
